<svg id="Layer_1" data-name="Layer 1" xmlns="http://www.w3.org/2000/svg" xmlns:xlink="http://www.w3.org/1999/xlink" width="26.14" height="26.18" viewBox="0 0 26.14 26.18"><defs><mask id="mask" x="0" y="0" width="26.14" height="26.18" maskUnits="userSpaceOnUse"><g id="mask-2"><polygon id="path-1" points="26.14 0 0 0 0 26.18 26.14 26.18 26.14 0" style="fill:#fff"/></g></mask></defs><title>facebook-round-gray</title><g style="mask:url(#mask)"><path id="Fill-1" d="M15.87,13.1H14v6.54H11.33V13.1H10V10.79h1.29V9.29a2.55,2.55,0,0,1,2.74-2.74h2V8.8H14.62a.55.55,0,0,0-.58.63v1.36h2.07ZM13.07,0A13.09,13.09,0,1,0,26.14,13.09,13.08,13.08,0,0,0,13.07,0Z" style="fill:#42526E"/></g></svg>
