<?xml version="1.0" encoding="UTF-8" standalone="no"?>
<svg width="20px" height="20px" viewBox="0 0 20 20" version="1.1" xmlns="http://www.w3.org/2000/svg" xmlns:xlink="http://www.w3.org/1999/xlink">
    <!-- Generator: Sketch 41.2 (35397) - http://www.bohemiancoding.com/sketch -->
    <title>linkedin</title>
    <desc>Created with Sketch.</desc>
    <defs></defs>
    <g id="high-fidelity-v1" stroke="none" stroke-width="1" fill="none" fill-rule="evenodd">
        <g id="Gated-white-paper-landing-page---mobile-v4" transform="translate(-327.000000, -23.000000)">
            <g id="social-media-icons" transform="translate(259.000000, 23.000000)">
                <g id="linkedin" transform="translate(68.000000, 0.000000)">
                    <rect id="Rectangle" x="0" y="0" width="20" height="20"></rect>
                    <circle id="Oval" fill="#42526E" cx="10" cy="10" r="10"></circle>
                    <path d="M5.68384931,8.36959685 L7.45574275,8.36959685 L7.45574275,14.5448725 L5.68384931,14.5448725 L5.68384931,8.36959685 Z M6.52463012,7.59717808 L6.51180193,7.59717808 C5.87039254,7.59717808 5.45454545,7.12511205 5.45454545,6.52731697 C5.45454545,5.91729822 5.88268622,5.45454545 6.5369238,5.45454545 C7.19062687,5.45454545 7.59257676,5.91613406 7.60540494,6.52557073 C7.60540494,7.12336581 7.19062687,7.59717808 6.52463012,7.59717808 L6.52463012,7.59717808 Z M14.5454545,14.5454545 L12.5362396,14.5454545 L12.5362396,11.349259 C12.5362396,10.5128116 12.221949,9.94237418 11.5308304,9.94237418 C11.0022022,9.94237418 10.7082229,10.3271284 10.5713889,10.6990768 C10.5200761,10.8317908 10.5280937,11.017474 10.5280937,11.2037393 L10.5280937,14.5454545 L8.53758659,14.5454545 C8.53758659,14.5454545 8.56324297,8.88415465 8.53758659,8.36959685 L10.5280937,8.36959685 L10.5280937,9.33875831 C10.6456855,8.91500483 11.2817498,8.3102248 12.2967801,8.3102248 C13.5560806,8.3102248 14.5454545,9.19905936 14.5454545,11.1111887 L14.5454545,14.5454545 L14.5454545,14.5454545 Z" id="Shape" fill="#FFFFFF"></path>
                </g>
            </g>
        </g>
    </g>
</svg>
