<svg id="Layer_1" data-name="Layer 1" xmlns="http://www.w3.org/2000/svg" viewBox="0 0 120 36.95"><defs><style>.cls-1{fill:#fff;}</style></defs><title>Artboard 1</title><g id="g902"><g id="g886"><path id="path6" class="cls-1" d="M43.1,22.11H40.77L45.09,11H47l4.22,11.09H48.85L48,19.81h-4Zm2.83-8-1.34,3.59h2.62Z"/><path id="path8" class="cls-1" d="M60,20.8a4.4,4.4,0,0,1-.78,2.85,4.12,4.12,0,0,1-3.48,1.65c-2.59,0-3.82-1.49-4.13-2.74h2a1.92,1.92,0,0,0,.86.83,2.79,2.79,0,0,0,1.08.37A2.52,2.52,0,0,0,58.23,21v-.11a3.61,3.61,0,0,1-2.83,1.21,4.18,4.18,0,0,1-4.32-4.32,4.14,4.14,0,0,1,4.22-4.31,3.61,3.61,0,0,1,3,1.33V13.71H60Zm-7-3.08a2.55,2.55,0,0,0,2.51,2.61,2.44,2.44,0,0,0,1.76-.81,2.47,2.47,0,0,0,.76-1.72A2.8,2.8,0,0,0,57.38,16a2.31,2.31,0,0,0-1.83-.76A2.46,2.46,0,0,0,53,17.73Z"/><path id="path10" class="cls-1" d="M61.62,11h2v1.76h-2Zm0,2.69h2v8.38h-2Z"/><path id="path12" class="cls-1" d="M65.32,11h1.86V22.13H65.32Z"/><path id="path14" class="cls-1" d="M70.53,18.52a2.1,2.1,0,0,0,2.31,1.94,2,2,0,0,0,1.94-1h2.15a4.87,4.87,0,0,1-1.63,2.1,4.19,4.19,0,0,1-2.4.74,4.41,4.41,0,0,1,0-8.82A4.24,4.24,0,0,1,76,14.73a4.42,4.42,0,0,1,1.21,3.77ZM75.15,17a2.17,2.17,0,0,0-2.31-1.75A2.13,2.13,0,0,0,70.55,17Z"/><path id="path16" class="cls-1" d="M89.11,18.91A5,5,0,0,1,84,22.31a5.68,5.68,0,0,1-5.66-5.86A5.71,5.71,0,0,1,84,10.72a5.36,5.36,0,0,1,5.18,3.54H86.57A2.73,2.73,0,0,0,84,13a3.48,3.48,0,0,0-3.45,3.53A3.37,3.37,0,0,0,84,20.1a2.83,2.83,0,0,0,2.48-1.2Z"/><path id="path18" class="cls-1" d="M90.41,13.66h1.8v1a2.61,2.61,0,0,1,2.2-1.12v1.86h-.08c-1.33,0-2,.66-2,2.1V22H90.42V13.66Z"/><path id="path20" class="cls-1" d="M103.57,22.08h-1.91V20.93a2.75,2.75,0,0,1-2.8,1.36,4.33,4.33,0,0,1-4.19-4.35,4.27,4.27,0,0,1,4.19-4.5c1.67,0,2.46.65,2.82,1.33V13.68l1.88,0Zm-4.45-1.76a2.23,2.23,0,0,0,2-1.18,2.41,2.41,0,0,0,.37-1.1,2.63,2.63,0,0,0-.19-1.12,2.33,2.33,0,0,0-2.17-1.51A2.37,2.37,0,0,0,96.67,18,2.41,2.41,0,0,0,99.11,20.31Z"/><path id="path22" class="cls-1" d="M105.65,15.39h-1V13.68h1v-.36c0-2.46,1.94-2.49,3.3-2.51v1.75c-.78,0-1.39.23-1.41.84v.29h1.41v1.72H107.5v6.67h-1.86Z"/><path id="path24" class="cls-1" d="M110.82,15.38h-1.29V13.71h1.29V10.93h1.86v2.78H114v1.67h-1.34l0,6.68h-1.86Z"/></g><g id="g874"><path id="path26" class="cls-1" d="M26.34,32.73c-1-1.79-2.07-3.64-3.13-5.46l8.54,0-9.21-16-4.27,7.39c-1.06-1.83-2.1-3.62-3.13-5.41.18-.33,3.21-5.58,4.57-7.92A4.59,4.59,0,0,1,21,3.86,2.59,2.59,0,0,1,23,3.3a3.08,3.08,0,0,1,1.5.85,5.22,5.22,0,0,1,.9,1.17c3.41,5.9,6.83,11.77,10.24,17.67,1,1.68,1.92,3.39,2.89,5.07a3.77,3.77,0,0,1,.52,2.25,2.44,2.44,0,0,1-1.3,2,3.77,3.77,0,0,1-1.52.42c-3.18,0-9.9,0-9.9,0Z"/><path id="path28" class="cls-1" d="M14.52,14.34c1,1.79,2.09,3.62,3.13,5.41,0,0-4.37,7.53-4.35,7.57l8.74,0s2,3.57,3.1,5.4l-16.26,0a3.13,3.13,0,0,1-2.45-1.17A3.36,3.36,0,0,1,6,29.91a5.47,5.47,0,0,1,.86-2.36s7.65-13.21,7.68-13.21Z"/></g></g></svg>