<svg xmlns="http://www.w3.org/2000/svg" width="627.63" height="64.01" viewBox="0 0 627.63 64.01"><defs><style>.cls-1{fill:#253858;}</style></defs><title>Atlassian Access</title><g id="Layer_2" data-name="Layer 2"><g id="Logos"><path class="cls-1" d="M13.89,49.94,9,63.12H0L23.06,4.63H33.2L56.26,63.12h-9l-4.9-13.27a70.76,70.76,0,0,1-14.51,1.6A71.83,71.83,0,0,1,13.89,49.94ZM40,43.17l-11.84-32L16.29,43.26a69.86,69.86,0,0,0,11.57,1.07A76.93,76.93,0,0,0,40,43.17Z"/><path class="cls-1" d="M77.44,55.91a24,24,0,0,0,4.81-.63v7.39a18.22,18.22,0,0,1-5.16.71c-9.53,0-14.16-5.61-14.16-13.88V25.73H55.72V18.61h7.21V9.17h7.48v9.44H82.25v7.12H70.41V49.32C70.41,53.23,72.73,55.91,77.44,55.91Z"/><path class="cls-1" d="M104,63.38C96.67,63.38,92,59.91,92,51.72V0H99.7V50.83c0,4,2.67,5.43,6,5.43a19.24,19.24,0,0,0,2.23-.09V63A16.89,16.89,0,0,1,104,63.38Z"/><path class="cls-1" d="M145,55.1C142.16,61,136.82,64,130,64c-11.84,0-17.8-10.06-17.8-23.15,0-12.55,6.23-23.14,18.69-23.14,6.5,0,11.48,2.93,14.16,8.72V18.61h7.65V63.12H145Zm-13,1.78c6.85,0,13-4.36,13-14.24V39.08c0-9.88-5.61-14.24-12.11-14.24-8.64,0-13.09,5.69-13.09,16C119.81,51.54,124.09,56.88,132,56.88Z"/><path class="cls-1" d="M178.21,64a34.27,34.27,0,0,1-15.49-3.3v-8.1A34.68,34.68,0,0,0,178.56,57c5.88,0,8.9-2.4,8.9-5.87s-2.58-5.34-11-7.39c-9.89-2.4-14.07-6.23-14.07-13.53,0-7.75,6-12.46,16.11-12.46a31.66,31.66,0,0,1,14.34,3.2v7.92c-5.35-2.67-9.71-4.09-14.43-4.09-5.6,0-8.63,2-8.63,5.43,0,3.11,2.14,5.07,10.33,7,9.88,2.4,14.86,6,14.86,13.8C194.94,58.4,190.14,64,178.21,64Z"/><path class="cls-1" d="M217.73,64a34.27,34.27,0,0,1-15.49-3.3v-8.1A34.71,34.71,0,0,0,218.08,57C224,57,227,54.57,227,51.1s-2.59-5.34-11-7.39c-9.88-2.4-14.07-6.23-14.07-13.53,0-7.75,6-12.46,16.11-12.46a31.66,31.66,0,0,1,14.34,3.2v7.92c-5.34-2.67-9.71-4.09-14.42-4.09-5.61,0-8.64,2-8.64,5.43,0,3.11,2.14,5.07,10.33,7,9.88,2.4,14.86,6,14.86,13.8C234.46,58.4,229.66,64,217.73,64Z"/><path class="cls-1" d="M247.19,1.51a5,5,0,0,1,5.34,5.35,5.34,5.34,0,0,1-10.68,0A5,5,0,0,1,247.19,1.51Zm-3.92,17.1h7.66V63.12h-7.66Z"/><path class="cls-1" d="M292.67,55.1c-2.84,5.88-8.18,8.91-15,8.91-11.84,0-17.8-10.06-17.8-23.15,0-12.55,6.23-23.14,18.69-23.14,6.5,0,11.48,2.93,14.15,8.72V18.61h7.66V63.12h-7.66Zm-13,1.78c6.85,0,13-4.36,13-14.24V39.08c0-9.88-5.6-14.24-12.1-14.24-8.64,0-13.09,5.69-13.09,16C267.48,51.54,271.75,56.88,279.68,56.88Z"/><path class="cls-1" d="M349.73,63.12h-7.65V36.23c0-8-3.21-11.57-10.51-11.57-7.12,0-12,4.72-12,13.71V63.12H311.9V18.61h7.66v7.3a15.58,15.58,0,0,1,14.06-8.19c10.24,0,16.11,7,16.11,19.31Z"/><path class="cls-1" d="M382.75,49.94l-4.89,13.18h-9L391.92,4.63h10.15l23.06,58.49h-9l-4.9-13.27a70.76,70.76,0,0,1-14.51,1.6A72,72,0,0,1,382.75,49.94Zm26.09-6.77L397,11.13,385.16,43.26a69.86,69.86,0,0,0,11.57,1.07A76.93,76.93,0,0,0,408.84,43.17Z"/><path class="cls-1" d="M461.89,62C459.22,63.38,455.12,64,451,64c-15.85,0-23.24-9.62-23.24-23.24,0-13.44,7.39-23.05,23.24-23.05a23.56,23.56,0,0,1,10.59,2.13V27a22.5,22.5,0,0,0-10.06-2.13c-11.57,0-16.29,7.3-16.29,15.93s4.81,15.94,16.47,15.94a28.09,28.09,0,0,0,10.15-1.61Z"/><path class="cls-1" d="M502,62c-2.67,1.42-6.76,2.05-10.86,2.05-15.84,0-23.23-9.62-23.23-23.24,0-13.44,7.39-23.05,23.23-23.05a23.6,23.6,0,0,1,10.6,2.13V27a22.53,22.53,0,0,0-10.06-2.13c-11.58,0-16.29,7.3-16.29,15.93s4.8,15.94,16.46,15.94A28.09,28.09,0,0,0,502,55.1Z"/><path class="cls-1" d="M532,64c-16.65,0-23.95-9.62-23.95-23.24,0-13.44,7.48-23.05,21-23.05,13.71,0,19.23,9.52,19.23,23.05v3.47H515.83c1.06,7.57,6,12.47,16.46,12.47a39.34,39.34,0,0,0,13.54-2.41v7C542.18,63.29,536.57,64,532,64ZM515.74,37.66h24.83c-.44-8.28-4.18-13-11.84-13C520.63,24.66,516.54,29.91,515.74,37.66Z"/><path class="cls-1" d="M571.37,64a34.27,34.27,0,0,1-15.49-3.3v-8.1A34.76,34.76,0,0,0,571.73,57c5.87,0,8.9-2.4,8.9-5.87s-2.58-5.34-11-7.39c-9.88-2.4-14.06-6.23-14.06-13.53,0-7.75,6-12.46,16.11-12.46A31.61,31.61,0,0,1,586,20.92v7.92c-5.34-2.67-9.7-4.09-14.42-4.09-5.61,0-8.64,2-8.64,5.43,0,3.11,2.14,5.07,10.33,7,9.88,2.4,14.87,6,14.87,13.8C588.11,58.4,583.3,64,571.37,64Z"/><path class="cls-1" d="M610.89,64a34.27,34.27,0,0,1-15.49-3.3v-8.1A34.76,34.76,0,0,0,611.25,57c5.87,0,8.9-2.4,8.9-5.87s-2.58-5.34-11-7.39c-9.88-2.4-14.06-6.23-14.06-13.53,0-7.75,6-12.46,16.11-12.46a31.61,31.61,0,0,1,14.33,3.2v7.92c-5.34-2.67-9.7-4.09-14.42-4.09-5.61,0-8.64,2-8.64,5.43,0,3.11,2.14,5.07,10.33,7,9.88,2.4,14.87,6,14.87,13.8C627.63,58.4,622.82,64,610.89,64Z"/></g></g></svg>