<svg id="Layer_1" data-name="Layer 1" xmlns="http://www.w3.org/2000/svg" xmlns:xlink="http://www.w3.org/1999/xlink" width="26.14" height="26.18" viewBox="0 0 26.14 26.18"><defs><mask id="mask" x="0" y="0" width="26.14" height="26.18" maskUnits="userSpaceOnUse"><g id="mask-2"><polygon id="path-1" points="0 26.18 26.14 26.18 26.14 0 0 0 0 26.18" style="fill:#fff"/></g></mask></defs><title>twitter-round-gray-01</title><g style="mask:url(#mask)"><path id="Fill-4" d="M18.27,10.42c0,.12,0,.23,0,.35A7.62,7.62,0,0,1,6.54,17.2a5.69,5.69,0,0,0,.64,0,5.37,5.37,0,0,0,3.33-1.15A2.69,2.69,0,0,1,8,14.23a2.76,2.76,0,0,0,.5,0,2.7,2.7,0,0,0,.71-.09,2.69,2.69,0,0,1-2.15-2.63v0a2.67,2.67,0,0,0,1.22.34,2.69,2.69,0,0,1-.83-3.59A7.61,7.61,0,0,0,13,11.07a2.68,2.68,0,0,1,4.57-2.45A5.36,5.36,0,0,0,19.25,8a2.69,2.69,0,0,1-1.18,1.49A5.34,5.34,0,0,0,19.61,9a5.45,5.45,0,0,1-1.34,1.39M13.07,0A13.09,13.09,0,1,0,26.14,13.09,13.08,13.08,0,0,0,13.07,0" style="fill:#42526E"/></g></svg>
